<svg width="160" height="80" viewBox="0 0 160 80" fill="none" xmlns="http://www.w3.org/2000/svg">
<path fill-rule="evenodd" clip-rule="evenodd" d="M43.2949 31.9752C43.1682 32.0107 42.9774 32.143 42.7864 32.3279C42.5193 32.5864 41.9144 33.5673 38 40.0902C35.5356 44.1967 33.5077 47.5868 33.4935 47.624C33.4728 47.6779 33.7785 47.6914 35.0184 47.6914H36.5692L40.0836 41.7488C42.0166 38.4803 43.6168 35.8248 43.6398 35.8478C43.6626 35.8707 44.4346 37.1544 45.3554 38.7006L47.0294 41.5118L44.6668 41.5381L42.3043 41.5644L41.6782 42.6358C41.3339 43.225 41.0521 43.7279 41.0521 43.7534C41.0521 43.7795 42.646 43.7998 44.7204 43.8002L48.3887 43.8007L49.5453 45.7461L50.7018 47.6914H52.3508H53.9998L53.8675 47.4679C51.7205 43.8385 44.8468 32.5127 44.6942 32.3529C44.5796 32.2329 44.4065 32.0937 44.3096 32.0436C44.0957 31.933 43.5716 31.8977 43.2949 31.9752ZM23.0657 32.1596C21.1729 32.3511 19.4881 33.145 18.2915 34.4091C17.1256 35.6407 16.4828 37.179 16.3388 39.0816C16.1917 41.0238 16.6656 42.9237 17.6722 44.4277C18.8222 46.1461 20.6384 47.2976 22.6975 47.614C23.1065 47.6768 24.0246 47.6908 27.7595 47.6911L32.3219 47.6914V46.3259V44.9604L27.6543 44.9437C22.3753 44.9247 22.7659 44.9552 21.7771 44.486C20.7812 44.0133 20.0847 43.3181 19.5953 42.308C19.1755 41.4415 19.0977 41.0634 19.0964 39.8815C19.0953 38.9997 19.1094 38.8301 19.2162 38.4387C19.6562 36.8274 20.7453 35.6435 22.2768 35.1121C22.9598 34.8751 23.3069 34.8596 27.9436 34.8593L32.3219 34.8589V33.4915V32.1242L27.7858 32.1326C25.291 32.1372 23.1669 32.1493 23.0657 32.1596ZM59.1877 32.2053C58.6128 32.2949 58.0263 32.4904 57.4874 32.7721C56.9919 33.0312 56.2753 33.7103 55.9977 34.1839C55.4923 35.0461 55.2983 36.2571 55.4897 37.3545C55.7562 38.8827 56.6983 40.0301 58.1445 40.5878C59.0331 40.9305 58.8958 40.9214 63.7193 40.9554L68.1107 40.9863L68.408 41.1063C68.8836 41.2983 69.1575 41.5403 69.3564 41.9445C69.5245 42.2858 69.5307 42.3212 69.5307 42.9307C69.5307 43.4677 69.5136 43.5999 69.4171 43.8088C69.2014 44.2754 68.7263 44.6908 68.2159 44.8589C68.0487 44.9141 66.7392 44.9338 61.826 44.9556L55.6464 44.9829L55.6324 46.3387L55.6183 47.6946L62.0223 47.6781C68.3974 47.6618 68.4282 47.6612 68.847 47.5479C70.6472 47.0611 71.6834 45.9953 72.0568 44.2466C72.1781 43.6784 72.1791 42.5628 72.0588 41.9339C71.8862 41.0319 71.55 40.3629 70.9977 39.8221C70.5136 39.3479 69.9064 39.0411 68.9563 38.7906C68.5437 38.6818 68.4031 38.6777 64.0874 38.6484L59.6434 38.6183L59.35 38.5C58.931 38.3311 58.6521 38.0706 58.4492 37.6584C58.2865 37.3281 58.276 37.2729 58.276 36.7523C58.276 36.2316 58.2865 36.1764 58.4492 35.8461C58.6519 35.4342 58.9305 35.1738 59.35 35.004L59.6434 34.8852L65.5206 34.8708L71.3977 34.8563V33.4902V32.1242L65.5206 32.1293C60.8677 32.1333 59.5485 32.1491 59.1877 32.2053ZM74.484 32.1583C74.4642 32.1781 74.4481 35.6929 74.4481 39.9692V47.744H75.8419H77.2358L77.2225 39.9472L77.2092 32.1505L75.8645 32.1364C75.125 32.1287 74.5038 32.1386 74.484 32.1583ZM87.0009 32.1583C86.9811 32.1781 86.965 33.6221 86.965 35.3673V38.5404H83.0732H79.1814V39.7763V41.0122H83.0732H86.965V44.3781V47.744H88.3588H89.7527L89.7394 39.9472L89.7261 32.1505L88.3814 32.1364C87.6419 32.1287 87.0207 32.1386 87.0009 32.1583ZM92.417 32.1592C92.3977 32.1785 92.382 35.6811 92.382 39.9429V47.6914H93.7493H95.1167V41.2752V34.8589H100.376H105.635V33.4915V32.1242H99.0436C95.4183 32.1242 92.4363 32.1399 92.417 32.1592ZM107.476 39.9078V47.6914H114.076H120.676V46.324V44.9566H115.444H110.211V38.5404V32.1242H108.843H107.476V39.9078ZM128.25 32.2036C125.699 32.5538 123.732 33.9232 122.623 36.12C121.734 37.8819 121.588 40.4451 122.26 42.5018C122.625 43.6195 123.183 44.5562 123.976 45.382C124.414 45.8386 125.17 46.4818 125.269 46.4818C125.288 46.4818 125.305 45.6291 125.305 44.5869V42.6922L125.14 42.3652C124.803 41.6989 124.633 41.0335 124.584 40.1917C124.437 37.6588 125.871 35.5927 128.186 35.0021C128.63 34.8889 128.728 34.8852 131.3 34.8852C133.886 34.8852 133.968 34.8883 134.429 35.0045C135.022 35.1539 135.85 35.5624 136.295 35.9254C137.56 36.9563 138.215 38.6613 138.033 40.4506C137.98 40.9649 137.787 41.7811 137.662 42.0146C137.632 42.0714 137.611 42.9604 137.611 44.2204V46.331L137.932 46.0787C140.444 44.1056 141.464 40.3225 140.372 37.0336C140.025 35.99 139.514 35.1379 138.772 34.3679C137.558 33.1078 136.036 32.3923 134.114 32.1779C133.407 32.099 128.866 32.1189 128.25 32.2036ZM97.0864 38.9226C97.0721 38.9597 97.0669 39.4982 97.0747 40.1195L97.0889 41.2489H101.033H104.978V40.0656V38.8822L101.045 38.8688C97.8866 38.8579 97.1071 38.8686 97.0864 38.9226ZM141.694 44.1892C140.773 44.5318 140.471 45.7945 141.132 46.5448C141.873 47.3868 143.314 47.0653 143.635 45.9864C143.733 45.6548 143.732 45.4642 143.629 45.119C143.533 44.7946 143.218 44.4239 142.899 44.2598C142.625 44.1186 141.984 44.0811 141.694 44.1892Z" fill="#8A8F98"/>
<path d="M133.876 47.6702V42.5519V37.4336H135.322H136.768V42.1395V46.8454L136.571 46.9453C135.964 47.2527 134.978 47.5404 134.231 47.6285L133.876 47.6702Z" fill="#D7D7D7"/>
<path d="M130.036 47.689V43.2713V38.8536H131.483H132.929V43.2713V47.689H131.483H130.036Z" fill="#D7D7D7"/>
<path d="M126.145 43.6997C126.145 41.9118 126.16 40.4331 126.18 40.4138C126.199 40.3945 126.862 40.3787 127.652 40.3787H129.09V44.0392V47.6997L128.708 47.6639C127.882 47.5862 126.895 47.3305 126.342 47.0504L126.145 46.9506V43.6997Z" fill="#D7D7D7"/>
</svg>
