<svg width="160" height="80" viewBox="0 0 160 80" fill="none" xmlns="http://www.w3.org/2000/svg">
<g clip-path="url(#clip0_9072_14886)">
<path d="M43.6739 44.4379L46.3013 46.6913C45.7986 47.3933 45.1914 48.0155 44.5002 48.5364C43.6407 49.2092 42.6856 49.7521 41.6659 50.1475C40.5375 50.5852 39.3348 50.8041 38.1233 50.7923C36.2809 50.8244 34.4645 50.3586 32.8686 49.4447C31.3645 48.5689 30.1295 47.303 29.2962 45.783C28.414 44.1664 27.968 42.3509 28.0018 40.5128C27.9897 39.1317 28.2389 37.7606 28.7363 36.4706C29.2208 35.2317 29.9428 34.0977 30.8623 33.1314C31.7686 32.1701 32.8636 31.4032 34.0801 30.878C35.3947 30.3201 36.8123 30.0405 38.242 30.0573C39.9492 29.9943 41.6419 30.3889 43.1421 31.1996C44.384 31.9163 45.46 32.8842 46.3004 34.0405L43.6443 36.384C43.0546 35.5179 42.3029 34.7721 41.4301 34.187C40.4726 33.6066 39.363 33.3213 38.242 33.3671C37.0462 33.3322 35.8693 33.6699 34.8767 34.3326C33.9254 34.9905 33.1709 35.8912 32.693 36.9395C32.1765 38.0409 31.914 39.2426 31.9244 40.4573C31.9111 41.643 32.1739 42.8157 32.6922 43.8841C33.167 44.8759 33.8997 45.7243 34.8146 46.342C35.7699 46.9608 36.8919 47.2775 38.0324 47.2503C38.9929 47.2912 39.9506 47.121 40.837 46.7519C41.4743 46.4671 42.0543 46.0701 42.549 45.5802L43.6705 44.4379" fill="#8A8F98"/>
<path d="M47.3363 43.3267C47.3232 42.0358 47.6489 40.7638 48.2814 39.6356C48.9116 38.5202 49.8283 37.5905 50.9384 36.9411C52.1422 36.2877 53.4923 35.9453 54.8645 35.9453C56.2366 35.9453 57.5868 36.2877 58.7906 36.9411C59.9007 37.5905 60.8175 38.5202 61.4476 39.6356C62.0676 40.7685 62.3922 42.0372 62.3922 43.3263C62.3922 44.6154 62.0676 45.884 61.4476 47.017C60.7755 48.1558 59.8155 49.1007 58.6623 49.7582C57.5092 50.4159 56.203 50.7633 54.873 50.7662C53.543 50.7693 52.2352 50.4276 51.0792 49.7752C49.9231 49.1228 48.9587 48.1822 48.2814 47.0464C47.6491 45.9185 47.3234 44.6468 47.3363 43.3562V43.3267ZM54.8348 47.7502C55.6284 47.7805 56.4088 47.5431 57.049 47.0768C57.6333 46.6349 58.0911 46.0494 58.3775 45.3781C58.6597 44.7405 58.8102 44.0533 58.8203 43.357C58.8135 42.6604 58.6628 41.9725 58.3775 41.336C58.09 40.6654 57.6323 40.0802 57.049 39.6373C56.3954 39.1982 55.6242 38.9636 54.8348 38.9636C54.0455 38.9636 53.2743 39.1982 52.6206 39.6373C52.0513 40.0747 51.6042 40.6493 51.3219 41.3065C51.0366 41.9431 50.8858 42.6309 50.879 43.3276C50.8843 44.0339 51.035 44.7316 51.3219 45.3781C51.607 46.0501 52.0651 46.6359 52.6504 47.0768C53.2905 47.5431 54.071 47.7805 54.8645 47.7502" fill="#8A8F98"/>
<path d="M63.0977 30.5234H66.6107V34.2146H63.0977V30.5234ZM63.0977 36.3821H66.6107V50.2956H63.0977V36.3821Z" fill="#8A8F98"/>
<path d="M68 50.2975V36.4135H71.3654L71.4528 37.9951C71.9166 37.5176 72.4427 37.1037 73.0171 36.7645C73.8231 36.3036 74.7447 36.08 75.6741 36.1197C76.4125 36.0726 77.1523 36.1873 77.841 36.4555C78.5297 36.7238 79.1506 37.139 79.6596 37.6719C80.6337 38.8468 81.1289 40.3412 81.0475 41.8605V50.2966H77.5048V41.89C77.5271 41.5164 77.4731 41.1424 77.3463 40.7901C77.2195 40.4378 77.0224 40.1144 76.7668 39.8394C76.5195 39.595 76.2241 39.4039 75.8991 39.2779C75.574 39.1519 75.2263 39.0937 74.8775 39.1071C74.4207 39.095 73.9668 39.1833 73.5484 39.3656C73.13 39.548 72.7573 39.8198 72.4572 40.1618C71.821 40.8807 71.4832 41.8124 71.5122 42.7688V50.2966L68 50.2975Z" fill="#8A8F98"/>
<path d="M124.445 39.6938L130.647 30.5218H124.772L121.554 35.6481L118.244 30.5218H111.749L112.044 30.9317L111.837 30.8451C110.301 30.2673 108.669 29.9812 107.026 30.0018C105.133 29.9668 103.266 30.4428 101.624 31.3789C100.451 32.0609 99.4355 32.9787 98.6419 34.0734C97.7796 33.0009 96.6642 32.1559 95.3944 31.6129C93.6591 30.8827 91.7885 30.5222 89.9039 30.5547H82.2578V50.2974H89.8743C91.7613 50.328 93.6332 49.9584 95.3647 49.2132C96.6259 48.6696 97.739 47.8363 98.6122 46.7822C99.4188 47.8867 100.456 48.8057 101.653 49.4767C103.295 50.3779 105.149 50.8327 107.025 50.7949C108.801 50.8263 110.56 50.4453 112.162 49.6821L111.749 50.2974H117.534L121.402 44.2308L125.388 50.2974H132.001L124.445 39.6938ZM93.7138 44.2004C93.1814 44.7052 92.5498 45.0957 91.8586 45.3476C91.1673 45.5997 90.4312 45.7077 89.6961 45.6651H87.5421V35.1247H89.6969C90.4514 35.0612 91.2107 35.1592 91.9237 35.4118C92.6368 35.6645 93.2868 36.0661 93.8301 36.5893C94.7447 37.645 95.2197 39.0067 95.1586 40.3975C95.1874 41.096 95.0742 41.7933 94.8257 42.4475C94.5771 43.1017 94.1985 43.6997 93.7121 44.2056L93.7138 44.2004ZM114.878 45.6408L112.369 43.3008C111.781 44.0572 111.061 44.7029 110.244 45.2075C109.37 45.6556 108.392 45.8679 107.409 45.8228C106.437 45.8464 105.477 45.6032 104.635 45.12C103.846 44.654 103.209 43.9729 102.8 43.1578C102.359 42.2757 102.136 41.3017 102.15 40.3169C102.132 39.3536 102.344 38.3996 102.771 37.534C103.175 36.726 103.799 36.0464 104.572 35.5719C105.437 35.0639 106.43 34.81 107.435 34.8395C108.366 34.8209 109.284 35.0537 110.092 35.5129C110.88 35.977 111.564 36.5964 112.101 37.3329L114.728 34.726L118.566 40.2034L114.878 45.6408Z" fill="#D7D7D7"/>
</g>
<defs>
<clipPath id="clip0_9072_14886">
<rect width="104" height="20.8" fill="white" transform="translate(28 30)"/>
</clipPath>
</defs>
</svg>
