<svg width="160" height="80" viewBox="0 0 160 80" fill="none" xmlns="http://www.w3.org/2000/svg">
<g clip-path="url(#clip0_9072_14872)">
<path d="M18 26V46.7012H21.3995V40.9653L22.1385 40.2831L27.3146 46.7012H31.5156L24.7422 38.5094L31.041 32.2107H26.8427L21.3995 37.6794V26H18Z" fill="#8A8F98"/>
<path d="M38.3383 43.9499C40.7913 43.9499 42.6843 41.9602 42.6843 39.4532C42.6843 36.9462 40.7913 34.9622 38.3383 34.9622C35.8853 34.9622 33.9894 36.9519 33.9894 39.4532C33.9894 41.9545 35.8824 43.9499 38.3383 43.9499ZM45.9076 32.2108V46.707H42.5365V44.6008C41.9722 45.3705 41.2325 45.9944 40.3788 46.421C39.5251 46.8477 38.582 47.0646 37.6277 47.0538C33.6483 47.0538 30.5586 43.7424 30.5586 39.4532C30.5586 35.164 33.6341 31.8555 37.6277 31.8555C39.6372 31.8555 41.4706 32.6826 42.5365 34.1919V32.2022L45.9076 32.2108Z" fill="#8A8F98"/>
<path d="M51.9972 46.7003H48.5664V32.204H51.9972V34.1255C52.8812 32.7668 54.3905 31.8516 56.4313 31.8516C59.9502 31.8516 62.0479 34.2164 62.0479 37.9741V46.7003H58.62V38.6307C58.62 36.3824 57.466 35.0208 55.3967 35.0208C53.3274 35.0208 51.9858 36.587 51.9858 39.0713L51.9972 46.7003Z" fill="#8A8F98"/>
<path d="M71.7942 34.932C71.2337 34.9353 70.6794 35.0501 70.1637 35.2697C69.648 35.4893 69.1812 35.8094 68.7904 36.2112C68.3997 36.6131 68.0928 37.0887 67.8878 37.6104C67.6827 38.132 67.5835 38.6893 67.5959 39.2496C67.5959 41.6742 69.4293 43.5957 71.7942 43.5957C74.159 43.5957 75.9839 41.6742 75.9839 39.2496C75.9963 38.689 75.897 38.1315 75.6918 37.6097C75.4865 37.0879 75.1794 36.6121 74.7884 36.2102C74.3973 35.8083 73.9302 35.4883 73.4141 35.2689C72.8981 35.0494 72.3435 34.9349 71.7828 34.932H71.7942ZM71.0864 46.5518C67.1525 46.5518 64.1367 43.4251 64.1367 39.2496C64.1367 35.0741 67.1525 31.8594 71.0864 31.8594C73.096 31.8594 74.8696 32.7462 75.8446 34.1646V32.2118H79.2185V45.8127C79.2185 50.3066 76.3761 53.3537 71.6464 53.3537C68.4231 53.3537 65.882 51.9324 64.6398 49.5391L67.36 47.8337C67.7693 48.6125 68.3867 49.2624 69.1434 49.7111C69.9002 50.1597 70.7667 50.3895 71.6464 50.3748C74.25 50.3748 75.8446 48.6694 75.8446 45.8525V44.2153C74.8696 45.6053 73.0676 46.5518 71.0864 46.5518Z" fill="#8A8F98"/>
<path d="M88.976 43.9499C91.429 43.9499 93.3221 41.9602 93.3221 39.4532C93.3221 36.9462 91.429 34.9622 88.976 34.9622C86.523 34.9622 84.6272 36.9519 84.6272 39.4532C84.6272 41.9545 86.5202 43.9499 88.976 43.9499ZM96.5453 32.2108V46.707H93.1743V44.6008C92.6099 45.3705 91.8702 45.9944 91.0165 46.421C90.1628 46.8477 89.2197 47.0646 88.2654 47.0538C84.2861 47.0538 81.1992 43.7424 81.1992 39.4532C81.1992 35.164 84.2747 31.8555 88.2654 31.8555C90.275 31.8555 92.1084 32.6826 93.1743 34.1919V32.2022L96.5453 32.2108Z" fill="#8A8F98"/>
<path d="M102.607 46.6987H99.207V32.2109H102.578L102.607 46.6987Z" fill="#8A8F98"/>
<path d="M113.048 39.4561C113.048 41.9403 114.941 43.9215 117.366 43.9215C119.79 43.9215 121.683 41.9318 121.683 39.4561C121.683 36.9803 119.79 34.9906 117.366 34.9906C114.941 34.9906 113.048 36.9803 113.048 39.4561ZM125.083 39.4561C125.083 43.7197 121.803 47.0538 117.366 47.0538C112.929 47.0538 109.648 43.714 109.648 39.4561C109.648 35.1981 112.934 31.8555 117.366 31.8555C121.797 31.8555 125.083 35.1981 125.083 39.4561Z" fill="#8A8F98"/>
<path d="M129.965 39.4561C129.965 41.9403 131.855 43.9215 134.28 43.9215C136.704 43.9215 138.597 41.9318 138.597 39.4561C138.597 36.9803 136.704 34.9906 134.28 34.9906C131.855 34.9906 129.965 36.9803 129.965 39.4561ZM142 39.4561C142 43.7197 138.717 47.0538 134.28 47.0538C129.843 47.0538 126.562 43.714 126.562 39.4561C126.562 35.1981 129.845 31.8555 134.28 31.8555C138.714 31.8555 142 35.1981 142 39.4561Z" fill="#8A8F98"/>
<path d="M109.119 34.9063C109.12 35.4416 108.961 35.965 108.664 36.4104C108.367 36.8558 107.945 37.203 107.451 37.4083C106.956 37.6135 106.412 37.6675 105.887 37.5634C105.362 37.4593 104.879 37.2018 104.501 36.8235C104.122 36.4452 103.864 35.963 103.759 35.4381C103.655 34.9131 103.708 34.3688 103.913 33.8742C104.117 33.3796 104.464 32.9568 104.909 32.6594C105.354 32.3619 105.878 32.2031 106.413 32.2031C106.768 32.2028 107.12 32.2724 107.448 32.4081C107.777 32.5438 108.075 32.7428 108.326 32.9938C108.578 33.2449 108.777 33.543 108.913 33.8712C109.049 34.1993 109.119 34.551 109.119 34.9063Z" fill="#8A8F98"/>
</g>
<defs>
<clipPath id="clip0_9072_14872">
<rect width="124" height="27.3525" fill="white" transform="translate(18 26)"/>
</clipPath>
</defs>
</svg>
