<svg width="160" height="80" viewBox="0 0 160 80" fill="none" xmlns="http://www.w3.org/2000/svg">
<g clip-path="url(#clip0_9072_14858)">
<path d="M72.035 51.2589H67.5547V27H72.035V51.2589Z" fill="#8A8F98"/>
<path fill-rule="evenodd" clip-rule="evenodd" d="M80.7847 47.7675C80.5558 47.3695 80.4446 46.9146 80.4641 46.4559L80.4664 34.7109H75.9938V46.5213C75.9758 47.2961 76.1061 48.0673 76.3776 48.7934C76.6068 49.3877 76.9505 49.9312 77.3895 50.393C77.7949 50.8103 78.2837 51.1375 78.824 51.3535C79.3462 51.5633 79.9036 51.6718 80.4664 51.6734C81.2455 51.6685 82.0204 51.5607 82.7712 51.3527C83.7371 51.0672 84.6704 50.6808 85.5554 50.1999C85.4776 50.0723 85.3997 49.944 85.3219 49.8157C85.2441 49.6875 85.1662 49.5593 85.0884 49.4317C84.9361 49.1853 84.7593 48.955 84.5607 48.7443C84.3847 48.5549 84.186 48.3878 83.9691 48.247C83.7634 48.1207 83.5218 48.0659 83.2818 48.0913C83.0329 48.1053 82.7859 48.1426 82.5439 48.2026C82.3463 48.256 82.1422 48.2822 81.9375 48.2804C81.3833 48.2799 80.9991 48.1089 80.7847 47.7675ZM86.5447 49.5445C86.7533 50.1779 87.0912 50.761 87.5372 51.257H91.2819C90.9567 49.9368 90.7845 48.5837 90.769 47.2242V34.7109H86.2887V47.7379C86.2844 48.3494 86.3707 48.9582 86.5447 49.5445Z" fill="#8A8F98"/>
<path d="M104.05 37.6568C103.731 37.688 103.409 37.6272 103.122 37.4816C102.866 37.3437 102.638 37.1589 102.451 36.9368C102.242 36.6898 102.059 36.4219 101.906 36.1374C101.735 35.8291 101.575 35.5142 101.425 35.1924C102.03 34.9417 102.657 34.7488 103.298 34.6164C103.883 34.494 104.478 34.4298 105.074 34.425C106.038 34.4095 106.988 34.6528 107.826 35.1294C108.635 35.5941 109.339 36.2205 109.894 36.9695C110.468 37.7453 110.91 38.6099 111.203 39.5288C111.509 40.4532 111.667 41.4202 111.67 42.394C111.679 43.6414 111.473 44.8809 111.062 46.0586C110.681 47.1585 110.082 48.1708 109.303 49.0351C108.524 49.8853 107.575 50.5613 106.518 51.0192C105.365 51.512 104.122 51.7574 102.869 51.7392C101.715 51.7408 100.566 51.6069 99.4437 51.3399C98.1845 51.0154 96.9702 50.5367 95.8281 49.9147V27H100.306V48.1252C100.747 48.2437 101.197 48.329 101.65 48.3805C102.062 48.4233 102.476 48.4443 102.89 48.4435C103.479 48.4522 104.058 48.2972 104.563 47.996C105.078 47.6841 105.513 47.258 105.837 46.7506C106.212 46.1613 106.481 45.5112 106.634 44.8295C106.82 44.0328 106.911 43.2168 106.904 42.3987C106.904 41.856 106.858 41.3145 106.767 40.7796C106.68 40.2424 106.518 39.72 106.286 39.2275C106.082 38.7835 105.781 38.3902 105.407 38.0755C105.025 37.7676 104.539 37.6177 104.05 37.6568Z" fill="#8A8F98"/>
<path d="M52.4803 51.2589H48V27H52.4803V51.2589Z" fill="#8A8F98"/>
<path d="M57.6955 34.6602L62.7588 34.6664L54.7703 42.8526L52.4453 39.957L57.6955 34.6602Z" fill="#D7D7D7"/>
<path d="M56.29 36.0859C56.29 36.0859 54.2078 38.4359 55.7684 42.0063C56.216 42.8975 65.6538 52.105 65.6538 52.105H59.626L49.9688 42.4531L56.29 36.0859Z" fill="#8A8F98"/>
</g>
<defs>
<clipPath id="clip0_9072_14858">
<rect width="64" height="25.9459" fill="white" transform="translate(48 27)"/>
</clipPath>
</defs>
</svg>
