<svg width="160" height="80" viewBox="0 0 160 80" fill="none" xmlns="http://www.w3.org/2000/svg">
<path fill-rule="evenodd" clip-rule="evenodd" d="M42 40V56H80.2457H118.491V40V24H80.2457H42V40ZM114.45 40V51.9587H80.2457H46.0413V40V28.0413H80.2457H114.45V40ZM49.9724 33.9931V35.977H52.3789H54.7853V42.0023V48.0276H56.8427H58.9001V42.0023V35.977H61.3249H63.7497V33.9931V32.0092H56.8611H49.9724V33.9931ZM65.4423 39.9731C63.999 44.3525 62.8109 47.9565 62.8022 47.9819C62.7896 48.0188 63.238 48.0262 65.0172 48.0187L67.248 48.0092L67.5869 46.8703L67.9258 45.7313H70.5858H73.2459L73.5307 46.6866C73.6872 47.2119 73.8408 47.7286 73.872 47.8347L73.9286 48.0276H76.1319C77.8506 48.0276 78.3353 48.0176 78.3353 47.9824C78.3353 47.9414 77.2467 44.6313 74.1606 35.2882L73.0776 32.0092L70.5721 32.0098L68.0666 32.0104L65.4423 39.9731ZM79.6211 40.0169V48.0276H81.6785H83.7359V45.6239V43.2203L85.5086 43.2044C87.1418 43.1897 87.3101 43.1824 87.6467 43.1104C89.8228 42.6452 91.4234 41.1661 91.9472 39.1366C92.093 38.5718 92.1285 38.2732 92.1285 37.6119C92.1285 36.9524 92.0933 36.6555 91.9479 36.0866C91.7126 35.1663 91.2426 34.3406 90.5694 33.6652C89.7902 32.8835 88.8195 32.3677 87.6467 32.1119C87.2872 32.0336 87.2189 32.0321 83.4512 32.0193L79.6211 32.0063V40.0169ZM94.1332 40.0169V48.0276H96.1906H98.248V45.6239V43.2203L100.021 43.2044C101.98 43.1868 102.087 43.1761 102.875 42.9168C104.832 42.2731 106.22 40.6665 106.57 38.6406C106.734 37.6879 106.653 36.6035 106.35 35.7021C106.101 34.9597 105.636 34.2157 105.065 33.6457C104.299 32.8812 103.321 32.3654 102.159 32.1119C101.799 32.0336 101.731 32.0321 97.9633 32.0193L94.1332 32.0063V40.0169ZM86.9411 36.0168C87.414 36.1761 87.7318 36.4896 87.9247 36.9874C88.0484 37.3065 88.0506 37.8772 87.9294 38.2293C87.7937 38.6237 87.5306 38.9367 87.1809 39.1197C86.8209 39.3081 86.6974 39.3203 85.1611 39.3203H83.7359V37.6303V35.9403H85.2251C86.6363 35.9403 86.726 35.9443 86.9411 36.0168ZM101.452 36.0162C101.839 36.1467 102.17 36.4272 102.341 36.7701C102.862 37.8143 102.332 39.053 101.268 39.279C101.143 39.3055 100.567 39.3203 99.6607 39.3203H98.248V37.6303V35.9403H99.7371C101.145 35.9403 101.238 35.9444 101.452 36.0162ZM71.3857 39.4909C71.8132 40.9284 72.163 42.1229 72.163 42.1453C72.163 42.1922 69.0039 42.2054 69.0027 42.1584C69.0007 42.0762 70.5651 36.8266 70.5848 36.8496C70.5977 36.8648 70.9581 38.0533 71.3857 39.4909ZM107.506 43.6513C106.836 43.8333 106.268 44.2981 105.965 44.9127C105.72 45.4089 105.654 45.9071 105.764 46.4353C105.979 47.4766 106.809 48.2107 107.916 48.3386C108.189 48.3701 108.671 48.3021 108.968 48.1904C110.077 47.7727 110.717 46.5543 110.441 45.3865C110.284 44.7257 109.714 44.0544 109.068 43.7689C108.629 43.5752 107.97 43.5255 107.506 43.6513Z" fill="#8A8F98"/>
</svg>
