<svg width="160" height="80" viewBox="0 0 160 80" fill="none" xmlns="http://www.w3.org/2000/svg">
<path fill-rule="evenodd" clip-rule="evenodd" d="M40.0309 20.17C40.1043 20.5744 40.7483 21.9918 42.7141 26.0754C46.6912 34.3369 59.3939 60.0684 59.4613 59.9999C59.506 59.9545 65.5714 46.3011 65.6046 46.1712L65.6309 46.0685L64.3713 46.0806L63.1117 46.0926L61.253 50.2751C60.2308 52.5756 59.3807 54.4577 59.3641 54.4577C59.3475 54.4577 59.1388 54.0547 58.9004 53.5622C58.662 53.0697 55.1169 45.9033 51.0224 37.6369C46.9279 29.3704 43.5672 22.5815 43.5543 22.5503C43.5356 22.5051 46.3152 22.4936 57.3639 22.4936H71.1971L71.8093 21.2698C72.146 20.5967 72.4215 20.0356 72.4215 20.023C72.4215 20.0103 65.1267 20 56.2108 20H40L40.0309 20.17ZM67.3483 42.1542C66.9304 42.3625 66.7323 42.735 66.7618 43.2572C66.7858 43.6821 66.9547 43.959 67.2952 44.1317C67.7377 44.356 68.2195 44.2838 68.5747 43.9399C69.1411 43.3915 68.9845 42.397 68.2858 42.1052C68.0185 41.9935 67.6301 42.0138 67.3483 42.1542ZM79.3632 42.1542C78.9452 42.3625 78.7471 42.735 78.7766 43.2572C78.8006 43.6821 78.9696 43.959 79.3101 44.1317C79.7526 44.356 80.2343 44.2838 80.5895 43.9399C81.1559 43.3915 80.9993 42.397 80.3006 42.1052C80.0333 41.9935 79.6449 42.0138 79.3632 42.1542ZM91.4233 42.1542C91.0054 42.3625 90.8073 42.735 90.8368 43.2572C90.8608 43.6821 91.0298 43.959 91.3703 44.1317C91.8128 44.356 92.2945 44.2838 92.6497 43.9399C93.2161 43.3915 93.0595 42.397 92.3608 42.1052C92.0935 41.9935 91.7051 42.0138 91.4233 42.1542ZM112.839 42.12C112.61 42.2243 112.488 42.4062 112.483 42.6529C112.477 42.9121 112.598 43.064 112.964 43.2589C113.333 43.4551 113.453 43.5612 113.453 43.6911C113.453 43.8359 113.332 43.9163 113.113 43.9163C112.872 43.9163 112.701 43.8247 112.564 43.6231L112.456 43.4646V43.7852C112.456 44.0906 112.462 44.1086 112.581 44.1641C112.761 44.2485 113.275 44.2774 113.467 44.2139C113.557 44.1843 113.692 44.0893 113.768 44.0027C113.882 43.8738 113.906 43.8063 113.905 43.6314C113.903 43.2881 113.781 43.1433 113.307 42.9189C112.893 42.7227 112.802 42.5419 113.048 42.4037C113.208 42.3141 113.458 42.3685 113.631 42.5305L113.771 42.6605V42.4134C113.771 42.1741 113.766 42.164 113.613 42.1005C113.399 42.011 113.061 42.0195 112.839 42.12ZM69.7308 42.2165C69.8236 42.4025 69.8035 44.0201 69.707 44.1362C69.6496 44.2052 69.7011 44.211 70.3721 44.211H71.0995L71.1258 44.075C71.1402 44.0002 71.1647 43.8727 71.1802 43.7917L71.2083 43.6443L71.0917 43.769C70.9831 43.885 70.9497 43.8937 70.6101 43.8937H70.2453V43.0877C70.2453 42.4315 70.2584 42.2629 70.3159 42.1809L70.3864 42.0801H70.0246H69.6628L69.7308 42.2165ZM71.9843 42.1481C72.0217 42.1855 72.0663 42.3278 72.0833 42.4643C72.1317 42.8515 72.0874 43.9899 72.0191 44.1134L71.9603 44.2197L72.6103 44.203C73.1663 44.1887 73.2865 44.1724 73.4417 44.0898C73.7705 43.9147 73.9546 43.6325 73.9945 43.2425C74.0282 42.9138 73.9438 42.6504 73.7308 42.4194C73.4715 42.1381 73.2652 42.0801 72.5235 42.0801C71.9839 42.0801 71.9239 42.0877 71.9843 42.1481ZM75.9742 42.1481C76.0115 42.1855 76.0561 42.3278 76.0731 42.4643C76.1215 42.8515 76.0772 43.9899 76.0089 44.1134L75.9501 44.2197L76.6002 44.203C77.1562 44.1887 77.2763 44.1724 77.4315 44.0898C77.7603 43.9147 77.9444 43.6325 77.9844 43.2425C78.018 42.9138 77.9336 42.6504 77.7207 42.4194C77.4614 42.1381 77.2551 42.0801 76.5134 42.0801C75.9738 42.0801 75.9137 42.0877 75.9742 42.1481ZM81.7414 42.1444C81.8216 42.2029 81.8307 42.2783 81.8438 42.9935C81.8594 43.8415 81.8409 44.0343 81.7337 44.1416C81.6713 44.204 81.6995 44.211 82.0107 44.211C82.3187 44.211 82.3497 44.2035 82.2893 44.1431C82.1997 44.0534 82.1606 43.7033 82.178 43.1456L82.1921 42.6922L82.5518 43.4751C82.7496 43.9056 82.9249 44.2422 82.9413 44.2232C82.9577 44.204 83.1121 43.8672 83.2844 43.4746L83.5976 42.7608L83.6102 43.3959C83.6178 43.7825 83.6039 44.0662 83.5746 44.121C83.5286 44.2071 83.5413 44.211 83.8628 44.211H84.1991L84.1324 44.0184C84.0425 43.7584 84.0634 42.2696 84.1585 42.155C84.2155 42.0865 84.1918 42.0801 83.8805 42.0801H83.5402L83.2758 42.6889C83.1304 43.0237 82.9992 43.29 82.9843 43.2808C82.9693 43.2715 82.8385 42.9976 82.6937 42.6721L82.4303 42.0801H82.0418C81.6954 42.0801 81.6629 42.087 81.7414 42.1444ZM85.0459 42.1809C85.1538 42.335 85.15 44.0082 85.0414 44.1281C84.9693 44.2078 84.981 44.211 85.3417 44.211C85.6856 44.211 85.7118 44.2048 85.6547 44.1361C85.6065 44.078 85.5925 43.8549 85.5925 43.1456C85.5925 42.4362 85.6065 42.2132 85.6547 42.1551C85.7118 42.0864 85.686 42.0801 85.3461 42.0801H84.9753L85.0459 42.1809ZM86.4897 42.1885C86.6474 42.3347 86.6703 42.498 86.6514 43.3413C86.6397 43.8652 86.6184 44.0816 86.5731 44.1361C86.5162 44.2047 86.5391 44.211 86.8408 44.211C87.1598 44.211 87.1682 44.2082 87.0944 44.1266C87.0294 44.0548 87.0199 43.9531 87.0307 43.4444L87.0434 42.8466L87.416 43.2968C87.6209 43.5444 87.8535 43.8515 87.9328 43.979C88.0659 44.193 88.0906 44.211 88.2516 44.211H88.4262V43.2333C88.4262 42.646 88.4449 42.2205 88.4731 42.1678C88.5175 42.0849 88.5024 42.0801 88.1979 42.0801C87.9049 42.0801 87.8821 42.0866 87.9469 42.1513C88.0037 42.2081 88.0179 42.3302 88.0172 42.7521C88.0162 43.261 88.0131 43.2778 87.9378 43.1847C87.8947 43.1314 87.6775 42.8611 87.455 42.584L87.0507 42.0801H86.7117H86.3727L86.4897 42.1885ZM89.3984 42.1809C89.5064 42.335 89.5025 44.0082 89.394 44.1281C89.3218 44.2078 89.3335 44.211 89.6942 44.211C90.0382 44.211 90.0643 44.2048 90.0073 44.1361C89.9591 44.078 89.9451 43.8549 89.9451 43.1456C89.9451 42.4362 89.9591 42.2132 90.0073 42.1551C90.0643 42.0864 90.0385 42.0801 89.6987 42.0801H89.3279L89.3984 42.1809ZM93.7439 42.1885C93.9016 42.3347 93.9246 42.498 93.9057 43.3413C93.894 43.8652 93.8726 44.0816 93.8274 44.1361C93.7704 44.2047 93.7933 44.211 94.0951 44.211C94.414 44.211 94.4225 44.2082 94.3486 44.1266C94.2836 44.0548 94.2741 43.9531 94.2849 43.4444L94.2976 42.8466L94.6703 43.2968C94.8752 43.5444 95.1078 43.8515 95.1871 43.979C95.3201 44.193 95.3449 44.211 95.5059 44.211H95.6805V43.2333C95.6805 42.646 95.6992 42.2205 95.7274 42.1678C95.7718 42.0849 95.7566 42.0801 95.4521 42.0801C95.1592 42.0801 95.1364 42.0866 95.2012 42.1513C95.2579 42.2081 95.2722 42.3302 95.2714 42.7521C95.2704 43.261 95.2673 43.2778 95.1921 43.1847C95.1489 43.1314 94.9317 42.8611 94.7093 42.584L94.3049 42.0801H93.9659H93.627L93.7439 42.1885ZM97.7911 42.2048C97.8394 42.2973 97.8563 42.5106 97.8565 43.0322C97.857 43.8672 97.897 43.9916 98.2194 44.1571C98.4898 44.296 99.0486 44.2867 99.2451 44.14C99.5388 43.9207 99.5549 43.8664 99.5796 43.0131C99.5961 42.4431 99.6192 42.2093 99.6645 42.1549C99.7214 42.0865 99.697 42.0801 99.3786 42.0801H99.0304L99.101 42.1809C99.1571 42.261 99.1716 42.4184 99.1716 42.9495C99.1716 43.3424 99.1508 43.6628 99.1212 43.7279C99.0184 43.9535 98.667 44.0076 98.46 43.8297L98.3328 43.7203L98.3173 43.0379C98.305 42.4956 98.316 42.3271 98.3705 42.2178L98.4392 42.0801H98.0827H97.7261L97.7911 42.2048ZM100.499 42.1885C100.657 42.3347 100.68 42.498 100.661 43.3413C100.649 43.8652 100.628 44.0816 100.583 44.1361C100.526 44.2047 100.549 44.211 100.851 44.211C101.17 44.211 101.178 44.2082 101.104 44.1266C101.039 44.0548 101.03 43.9531 101.04 43.4444L101.053 42.8466L101.426 43.2968C101.631 43.5444 101.863 43.8515 101.943 43.979C102.076 44.193 102.1 44.211 102.261 44.211H102.436V43.2333C102.436 42.646 102.455 42.2205 102.483 42.1678C102.527 42.0849 102.512 42.0801 102.208 42.0801C101.915 42.0801 101.892 42.0866 101.957 42.1513C102.013 42.2081 102.028 42.3302 102.027 42.7521C102.026 43.261 102.023 43.2778 101.948 43.1847C101.904 43.1314 101.687 42.8611 101.465 42.584L101.06 42.0801H100.721H100.382L100.499 42.1885ZM103.363 42.1809C103.471 42.335 103.467 44.0082 103.358 44.1281C103.286 44.2078 103.298 44.211 103.659 44.211C104.003 44.211 104.029 44.2048 103.972 44.1361C103.923 44.078 103.909 43.8549 103.909 43.1456C103.909 42.4362 103.923 42.2132 103.972 42.1551C104.029 42.0864 104.003 42.0801 103.663 42.0801H103.292L103.363 42.1809ZM104.807 42.1883C104.862 42.2479 105.08 42.7283 105.291 43.2559L105.674 44.2153L105.851 44.2018L106.027 44.1884L106.407 43.2406C106.615 42.7193 106.831 42.2449 106.886 42.1864L106.986 42.0801H106.637C106.311 42.0801 106.292 42.0854 106.341 42.1631C106.383 42.2306 106.352 42.3538 106.176 42.8219C106.057 43.1385 105.944 43.4074 105.924 43.4195C105.887 43.4421 105.428 42.3099 105.428 42.1967C105.428 42.1617 105.454 42.1227 105.485 42.1101C105.516 42.0976 105.354 42.0856 105.124 42.0837L104.707 42.0801L104.807 42.1883ZM107.711 42.163C107.821 42.2841 107.824 44.0307 107.715 44.1398C107.65 44.2046 107.709 44.211 108.367 44.211C109.172 44.211 109.12 44.2336 109.168 43.8655C109.192 43.6794 109.187 43.6557 109.137 43.7163C109.03 43.847 108.884 43.8937 108.582 43.8937H108.285V43.5951V43.2965L108.579 43.3117L108.874 43.3269L108.874 43.11C108.874 42.9095 108.867 42.8966 108.786 42.94C108.738 42.9658 108.606 42.9869 108.492 42.9869H108.285V42.6922V42.3975H108.578C108.821 42.3975 108.886 42.4144 108.963 42.4967L109.055 42.5959V42.338V42.0801H108.346C107.661 42.0801 107.639 42.083 107.711 42.163ZM109.978 42.163C110.042 42.2343 110.053 42.3717 110.053 43.1408C110.053 43.6709 110.034 44.0714 110.006 44.1234C109.961 44.2065 109.977 44.211 110.306 44.211C110.603 44.211 110.646 44.2016 110.599 44.1458C110.569 44.1098 110.533 43.9262 110.519 43.7377C110.497 43.4453 110.504 43.3949 110.564 43.3949C110.656 43.3949 110.761 43.5324 110.96 43.9091L111.118 44.2103L111.436 44.2092C111.695 44.2084 111.74 44.1979 111.681 44.1529C111.61 44.0979 111.495 43.9247 111.264 43.5238L111.142 43.3126L111.303 43.218C111.587 43.05 111.675 42.6673 111.492 42.3929C111.317 42.1311 111.154 42.0802 110.488 42.0802C109.924 42.0801 109.906 42.0831 109.978 42.163ZM114.743 42.1809C114.851 42.335 114.847 44.0082 114.738 44.1281C114.666 44.2078 114.678 44.211 115.039 44.211C115.383 44.211 115.409 44.2048 115.352 44.1361C115.304 44.078 115.29 43.8549 115.29 43.1456C115.29 42.4362 115.304 42.2132 115.352 42.1551C115.409 42.0864 115.383 42.0801 115.043 42.0801H114.672L114.743 42.1809ZM116.202 42.1821C116.187 42.2383 116.175 42.3634 116.174 42.4603L116.174 42.6364L116.268 42.517C116.35 42.4119 116.394 42.3975 116.63 42.3975H116.899L116.899 43.1796C116.899 43.7703 116.883 43.9922 116.834 44.0864L116.769 44.211H117.134C117.469 44.211 117.494 44.2047 117.437 44.1361C117.391 44.0803 117.371 43.8491 117.36 43.2294L117.344 42.3975H117.606C117.813 42.3975 117.89 42.4183 117.973 42.496L118.078 42.5947V42.3374V42.0801H117.154C116.234 42.0801 116.23 42.0806 116.202 42.1821ZM118.788 42.2279C118.859 42.3092 119.035 42.5826 119.178 42.8355L119.438 43.2952V43.6987C119.438 43.9521 119.418 44.1224 119.384 44.1566C119.341 44.1989 119.411 44.211 119.698 44.211H120.067L120.002 44.0864C119.964 44.0136 119.937 43.8321 119.937 43.6508C119.937 43.3482 119.945 43.3266 120.238 42.8347C120.404 42.5569 120.591 42.2733 120.655 42.2048L120.77 42.0801H120.448C120.149 42.0801 120.128 42.0865 120.15 42.1706C120.165 42.2271 120.101 42.3886 119.98 42.6006L119.785 42.9402L119.701 42.8022C119.455 42.3966 119.382 42.2156 119.439 42.1475C119.487 42.0887 119.441 42.0801 119.076 42.0801H118.658L118.788 42.2279ZM67.9911 42.4143C68.2733 42.5345 68.4317 42.8167 68.4317 43.1991C68.4317 43.6201 68.2054 43.8937 67.8573 43.8937C67.4684 43.8937 67.2472 43.6038 67.2472 43.0942C67.2472 42.7426 67.343 42.547 67.5718 42.4316C67.7613 42.336 67.8032 42.3342 67.9911 42.4143ZM80.0059 42.4143C80.2882 42.5345 80.4465 42.8167 80.4465 43.1991C80.4465 43.6201 80.2203 43.8937 79.8721 43.8937C79.4833 43.8937 79.2621 43.6038 79.2621 43.0942C79.2621 42.7426 79.3579 42.547 79.5866 42.4316C79.7761 42.336 79.8181 42.3342 80.0059 42.4143ZM92.0661 42.4143C92.3484 42.5345 92.5067 42.8167 92.5067 43.1991C92.5067 43.6201 92.2804 43.8937 91.9323 43.8937C91.5434 43.8937 91.3222 43.6038 91.3222 43.0942C91.3222 42.7426 91.418 42.547 91.6468 42.4316C91.8363 42.336 91.8782 42.3342 92.0661 42.4143ZM73.1787 42.4863C73.5644 42.7215 73.6084 43.3959 73.2608 43.7436C73.1237 43.8807 73.0867 43.8937 72.8341 43.8937H72.5576V43.1456V42.3975L72.7956 42.3977C72.9516 42.3978 73.0836 42.4283 73.1787 42.4863ZM77.1686 42.4863C77.5543 42.7215 77.5983 43.3959 77.2506 43.7436C77.1135 43.8807 77.0766 43.8937 76.824 43.8937H76.5474V43.1456V42.3975L76.7854 42.3977C76.9415 42.3978 77.0735 42.4283 77.1686 42.4863ZM110.995 42.4681C111.068 42.5195 111.096 42.584 111.095 42.7061C111.095 42.7982 111.079 42.896 111.061 42.9234C111.002 43.0116 110.834 43.0776 110.668 43.0776H110.506V42.7375V42.3975H110.7C110.807 42.3975 110.94 42.4293 110.995 42.4681Z" fill="#8A8F98"/>
<path d="M68.0357 39.8922C68.047 39.8611 68.7461 37.2086 69.5894 33.998C70.4327 30.7873 71.127 28.1656 71.1323 28.1719C71.1377 28.1782 71.9082 30.0094 72.8447 32.2412C73.7812 34.4731 74.576 36.3666 74.611 36.4493C74.6747 36.5993 74.6762 36.5962 76.439 32.3712C77.4093 30.0457 78.2094 28.1725 78.217 28.2085C78.2246 28.2446 78.92 30.8958 79.7624 34.1001L81.2941 39.9262L80.5471 39.9387C80.1362 39.9455 79.7928 39.9438 79.7839 39.9349C79.775 39.926 79.3575 38.3392 78.8562 36.4087C78.3549 34.4782 77.9296 32.8825 77.9112 32.8628C77.8929 32.8431 77.1785 34.4855 76.3237 36.5126C75.469 38.5397 74.7465 40.2426 74.7183 40.2969C74.6734 40.3831 74.4652 39.9145 73.0603 36.5659C72.1587 34.4169 71.4401 32.762 71.4229 32.7948C71.4059 32.827 70.9762 34.4496 70.4679 36.4006L69.5437 39.9479L68.7794 39.9484C68.1871 39.9488 68.0198 39.9361 68.0357 39.8922Z" fill="#D7D7D7"/>
<path d="M100.057 29.7017C100.512 29.0183 101.262 28.5227 102.12 28.3399C103.558 28.0335 105.372 28.6132 106.247 29.6588L106.428 29.8746L105.792 30.3828L105.155 30.8911L104.8 30.5517C104.363 30.1337 104.124 29.9908 103.723 29.9058C102.708 29.6906 101.672 30.0213 101.343 30.6657C101.223 30.9014 101.186 31.272 101.259 31.498C101.416 31.9795 101.8 32.2988 102.782 32.7663C104.351 33.5129 104.567 33.6231 104.913 33.853C105.8 34.4422 106.35 35.1624 106.591 36.0497C106.702 36.4549 106.703 37.3667 106.594 37.7712C106.283 38.9212 105.309 39.8774 104.115 40.2051C103.712 40.3156 102.594 40.3162 102.149 40.2062C100.967 39.9139 100.062 39.2208 99.4073 38.1044C99.2534 37.8423 98.9759 37.2289 99.0001 37.2047C99.0087 37.1961 99.3214 37.1053 99.695 37.0029C100.069 36.9005 100.408 36.8067 100.449 36.7944C100.504 36.7778 100.571 36.8608 100.71 37.1182C101.283 38.1797 102.096 38.7217 103.119 38.724C103.728 38.7255 104.242 38.5081 104.636 38.0824C104.95 37.7435 105.077 37.4193 105.077 36.9565C105.077 36.5452 104.97 36.2481 104.674 35.8327C104.316 35.3313 103.806 35.0023 102.62 34.508C101.495 34.0393 101 33.7424 100.527 33.253C99.9793 32.6855 99.7104 32.1717 99.6324 31.5436C99.5493 30.8743 99.6936 30.2486 100.057 29.7017Z" fill="#D7D7D7"/>
<path d="M112.48 30.2071C113.514 29.1313 114.775 28.4856 116.198 28.3035C116.705 28.2386 117.533 28.2458 118.101 28.3202C118.699 28.3987 119.664 28.6361 120.165 28.8281L120.505 28.9586L120.517 29.8478L120.529 30.737L120.071 30.5355C117.531 29.4176 115.31 29.6624 113.739 31.2334C113.222 31.7503 112.87 32.3361 112.652 33.0443C112.539 33.4134 112.529 33.5029 112.528 34.2588C112.526 34.9741 112.538 35.1186 112.628 35.4281C112.834 36.1404 113.131 36.6636 113.636 37.2017C114.528 38.1521 115.658 38.6468 117.082 38.7102C118.041 38.7529 118.912 38.5464 119.964 38.0266L120.527 37.748V38.6402V39.5323L120.024 39.745C118.177 40.5245 115.928 40.4884 114.268 39.6527C113.125 39.0773 111.971 37.9371 111.424 36.8432C111.227 36.4476 111.021 35.838 110.931 35.3821C110.821 34.8247 110.821 33.6291 110.932 33.1027C111.17 31.9674 111.649 31.0715 112.48 30.2071Z" fill="#D7D7D7"/>
<path d="M56.6438 34.439C55.2675 31.3226 54.1225 28.7371 54.0994 28.6935C54.06 28.6192 54.1109 28.6141 54.8863 28.6142L55.7153 28.6143L57.48 32.6019C58.4506 34.7951 59.2565 36.582 59.2709 36.5728C59.2853 36.5636 60.0928 34.7696 61.0653 32.5861L62.8335 28.6161L63.6647 28.6151C64.1219 28.6146 64.4892 28.6315 64.4808 28.6527C64.4725 28.6739 63.2926 31.3044 61.8587 34.4982C59.5451 39.6518 59.2458 40.294 59.199 40.2052C59.1699 40.1502 58.0201 37.5554 56.6438 34.439Z" fill="#D7D7D7"/>
<path fill-rule="evenodd" clip-rule="evenodd" d="M89.8243 28.2954C89.7866 28.3827 88.6284 30.9534 87.2506 34.0081C85.8727 37.0628 84.7078 39.6488 84.6618 39.7548L84.5781 39.9475H85.3871H86.1961L86.8528 38.4854L87.5096 37.0232H89.9044H92.2992L92.9596 38.4841L93.62 39.945L94.4301 39.9463C95.1804 39.9474 95.2384 39.9417 95.2171 39.8682C95.2045 39.8246 94.0273 37.2283 92.6012 34.0988C91.1751 30.9693 89.9823 28.3475 89.9506 28.2727L89.8929 28.1367L89.8243 28.2954ZM90.8062 33.7273C91.2951 34.8075 91.6951 35.7002 91.6951 35.7109C91.6951 35.7216 90.8892 35.7304 89.9042 35.7304C88.9192 35.7304 88.1133 35.7202 88.1133 35.7078C88.1133 35.6954 88.4832 34.8639 88.9355 33.8602C89.3876 32.8565 89.7867 31.9667 89.8222 31.883C89.8577 31.7992 89.8937 31.738 89.9021 31.747C89.9106 31.7559 90.3174 32.647 90.8062 33.7273Z" fill="#D7D7D7"/>
</svg>
